STARTFONT 2.1
FONT -DEC-VT-Medium-R-Narrow--18-130-100-100-C-60-ISO8859-1
SIZE 13 100 100
FONTBOUNDINGBOX 6 18 0 -4

STARTPROPERTIES 24
FOUNDRY "DEC"
FAMILY_NAME "VT"
WEIGHT_NAME "Medium"
SLANT "R"
SETWIDTH_NAME "Narrow"
ADD_STYLE_NAME ""
PIXEL_SIZE 18
POINT_SIZE 130
RESOLUTION_X 100
RESOLUTION_Y 100
SPACING "C"
AVERAGE_WIDTH 60
CHARSET_REGISTRY "ISO8859"
CHARSET_ENCODING "1"
CAP_HEIGHT 9
X_HEIGHT 7
COPYRIGHT "Copyright (c) 1993 Digital Equipment Corporation. All Rights Reserved."
_DEC_PRODUCTINFO "DECterm VT Medium V1.0, 19-Oct-1993"
FULL_NAME "VT Narrow"
WEIGHT 10
QUAD_WIDTH 6
DEFAULT_CHAR 159
FONT_DESCENT 4
FONT_ASCENT 14
ENDPROPERTIES

CHARS 195

STARTCHAR space
ENCODING 32
SWIDTH 1000 0
DWIDTH 6 0
BBX 6 18 0 -4
BITMAP
00
00
00
00
00
00
00
00
00
00
00
00
00
00
00
00
00
00
ENDCHAR

STARTCHAR exclam
ENCODING 33
SWIDTH 1000 0
DWIDTH 6 0
BBX 6 18 0 -4
BITMAP
00
00
00
00
00
20
20
20
20
20
20
20
00
20
00
00
00
00
ENDCHAR

STARTCHAR quotedbl
ENCODING 34
SWIDTH 1000 0
DWIDTH 6 0
BBX 6 18 0 -4
BITMAP
00
00
00
00
48
48
48
00
00
00
00
00
00
00
00
00
00
00
ENDCHAR

STARTCHAR numbersign
ENCODING 35
SWIDTH 1000 0
DWIDTH 6 0
BBX 6 18 0 -4
BITMAP
00
00
00
00
00
00
28
28
7C
28
28
7C
28
28
00
00
00
00
ENDCHAR

STARTCHAR dollar
ENCODING 36
SWIDTH 1000 0
DWIDTH 6 0
BBX 6 18 0 -4
BITMAP
00
00
00
00
10
10
30
48
20
10
08
48
30
20
20
00
00
00
ENDCHAR

STARTCHAR percent
ENCODING 37
SWIDTH 1000 0
DWIDTH 6 0
BBX 6 18 0 -4
BITMAP
00
00
00
00
00
20
50
24
08
10
20
48
14
08
00
00
00
00
ENDCHAR

STARTCHAR ampersand
ENCODING 38
SWIDTH 1000 0
DWIDTH 6 0
BBX 6 18 0 -4
BITMAP
00
00
00
00
00
10
28
28
10
34
4C
48
48
34
00
00
00
00
ENDCHAR

STARTCHAR quoteright
ENCODING 39
SWIDTH 1000 0
DWIDTH 6 0
BBX 6 18 0 -4
BITMAP
00
00
00
00
10
10
20
00
00
00
00
00
00
00
00
00
00
00
ENDCHAR

STARTCHAR parenleft
ENCODING 40
SWIDTH 1000 0
DWIDTH 6 0
BBX 6 18 0 -4
BITMAP
00
00
00
00
08
10
10
20
20
20
20
20
20
10
10
08
00
00
ENDCHAR

STARTCHAR parenright
ENCODING 41
SWIDTH 1000 0
DWIDTH 6 0
BBX 6 18 0 -4
BITMAP
00
00
00
00
40
20
20
10
10
10
10
10
10
20
20
40
00
00
ENDCHAR

STARTCHAR asterisk
ENCODING 42
SWIDTH 1000 0
DWIDTH 6 0
BBX 6 18 0 -4
BITMAP
00
00
00
00
00
00
28
10
7C
10
28
00
00
00
00
00
00
00
ENDCHAR

STARTCHAR plus
ENCODING 43
SWIDTH 1000 0
DWIDTH 6 0
BBX 6 18 0 -4
BITMAP
00
00
00
00
00
00
10
10
10
7C
10
10
10
00
00
00
00
00
ENDCHAR

STARTCHAR comma
ENCODING 44
SWIDTH 1000 0
DWIDTH 6 0
BBX 6 18 0 -4
BITMAP
00
00
00
00
00
00
00
00
00
00
00
00
10
10
20
00
00
00
ENDCHAR

STARTCHAR minus
ENCODING 45
SWIDTH 1000 0
DWIDTH 6 0
BBX 6 18 0 -4
BITMAP
00
00
00
00
00
00
00
00
00
78
00
00
00
00
00
00
00
00
ENDCHAR

STARTCHAR period
ENCODING 46
SWIDTH 1000 0
DWIDTH 6 0
BBX 6 18 0 -4
BITMAP
00
00
00
00
00
00
00
00
00
00
00
00
20
20
00
00
00
00
ENDCHAR

STARTCHAR slash
ENCODING 47
SWIDTH 1000 0
DWIDTH 6 0
BBX 6 18 0 -4
BITMAP
00
00
00
00
08
08
08
10
10
10
20
20
20
40
40
40
00
00
ENDCHAR

STARTCHAR zero
ENCODING 48
SWIDTH 1000 0
DWIDTH 6 0
BBX 6 18 0 -4
BITMAP
00
00
00
00
00
10
28
44
44
44
44
44
28
10
00
00
00
00
ENDCHAR

STARTCHAR one
ENCODING 49
SWIDTH 1000 0
DWIDTH 6 0
BBX 6 18 0 -4
BITMAP
00
00
00
00
00
10
30
10
10
10
10
10
10
7C
00
00
00
00
ENDCHAR

STARTCHAR two
ENCODING 50
SWIDTH 1000 0
DWIDTH 6 0
BBX 6 18 0 -4
BITMAP
00
00
00
00
00
30
48
08
08
10
20
40
40
78
00
00
00
00
ENDCHAR

STARTCHAR three
ENCODING 51
SWIDTH 1000 0
DWIDTH 6 0
BBX 6 18 0 -4
BITMAP
00
00
00
00
00
30
48
08
08
30
08
08
48
30
00
00
00
00
ENDCHAR

STARTCHAR four
ENCODING 52
SWIDTH 1000 0
DWIDTH 6 0
BBX 6 18 0 -4
BITMAP
00
00
00
00
00
08
18
18
28
48
48
7C
08
08
00
00
00
00
ENDCHAR

STARTCHAR five
ENCODING 53
SWIDTH 1000 0
DWIDTH 6 0
BBX 6 18 0 -4
BITMAP
00
00
00
00
00
78
40
40
70
48
08
08
48
30
00
00
00
00
ENDCHAR

STARTCHAR six
ENCODING 54
SWIDTH 1000 0
DWIDTH 6 0
BBX 6 18 0 -4
BITMAP
00
00
00
00
00
18
20
40
70
48
48
48
48
30
00
00
00
00
ENDCHAR

STARTCHAR seven
ENCODING 55
SWIDTH 1000 0
DWIDTH 6 0
BBX 6 18 0 -4
BITMAP
00
00
00
00
00
78
08
08
10
10
20
20
20
20
00
00
00
00
ENDCHAR

STARTCHAR eight
ENCODING 56
SWIDTH 1000 0
DWIDTH 6 0
BBX 6 18 0 -4
BITMAP
00
00
00
00
00
30
48
48
48
30
48
48
48
30
00
00
00
00
ENDCHAR

STARTCHAR nine
ENCODING 57
SWIDTH 1000 0
DWIDTH 6 0
BBX 6 18 0 -4
BITMAP
00
00
00
00
00
30
48
48
48
48
38
08
10
60
00
00
00
00
ENDCHAR

STARTCHAR colon
ENCODING 58
SWIDTH 1000 0
DWIDTH 6 0
BBX 6 18 0 -4
BITMAP
00
00
00
00
00
00
00
00
20
20
00
00
20
20
00
00
00
00
ENDCHAR

STARTCHAR semicolon
ENCODING 59
SWIDTH 1000 0
DWIDTH 6 0
BBX 6 18 0 -4
BITMAP
00
00
00
00
00
00
00
00
20
20
00
00
00
20
20
40
00
00
ENDCHAR

STARTCHAR less
ENCODING 60
SWIDTH 1000 0
DWIDTH 6 0
BBX 6 18 0 -4
BITMAP
00
00
00
00
08
10
20
40
80
80
40
20
10
08
00
00
00
00
ENDCHAR

STARTCHAR equal
ENCODING 61
SWIDTH 1000 0
DWIDTH 6 0
BBX 6 18 0 -4
BITMAP
00
00
00
00
00
00
00
00
78
00
00
78
00
00
00
00
00
00
ENDCHAR

STARTCHAR greater
ENCODING 62
SWIDTH 1000 0
DWIDTH 6 0
BBX 6 18 0 -4
BITMAP
00
00
00
00
40
20
10
08
04
04
08
10
20
40
00
00
00
00
ENDCHAR

STARTCHAR question
ENCODING 63
SWIDTH 1000 0
DWIDTH 6 0
BBX 6 18 0 -4
BITMAP
00
00
00
00
00
30
48
08
08
10
20
20
00
20
00
00
00
00
ENDCHAR

STARTCHAR at
ENCODING 64
SWIDTH 1000 0
DWIDTH 6 0
BBX 6 18 0 -4
BITMAP
00
00
00
00
00
30
48
88
98
A8
A8
90
40
38
00
00
00
00
ENDCHAR

STARTCHAR A
ENCODING 65
SWIDTH 1000 0
DWIDTH 6 0
BBX 6 18 0 -4
BITMAP
00
00
00
00
00
30
48
48
48
78
48
48
48
48
00
00
00
00
ENDCHAR

STARTCHAR B
ENCODING 66
SWIDTH 1000 0
DWIDTH 6 0
BBX 6 18 0 -4
BITMAP
00
00
00
00
00
70
48
48
48
70
48
48
48
70
00
00
00
00
ENDCHAR

STARTCHAR C
ENCODING 67
SWIDTH 1000 0
DWIDTH 6 0
BBX 6 18 0 -4
BITMAP
00
00
00
00
00
30
48
40
40
40
40
40
48
30
00
00
00
00
ENDCHAR

STARTCHAR D
ENCODING 68
SWIDTH 1000 0
DWIDTH 6 0
BBX 6 18 0 -4
BITMAP
00
00
00
00
00
F0
48
48
48
48
48
48
48
F0
00
00
00
00
ENDCHAR

STARTCHAR E
ENCODING 69
SWIDTH 1000 0
DWIDTH 6 0
BBX 6 18 0 -4
BITMAP
00
00
00
00
00
78
40
40
40
70
40
40
40
78
00
00
00
00
ENDCHAR

STARTCHAR F
ENCODING 70
SWIDTH 1000 0
DWIDTH 6 0
BBX 6 18 0 -4
BITMAP
00
00
00
00
00
78
40
40
40
70
40
40
40
40
00
00
00
00
ENDCHAR

STARTCHAR G
ENCODING 71
SWIDTH 1000 0
DWIDTH 6 0
BBX 6 18 0 -4
BITMAP
00
00
00
00
00
30
48
40
40
58
48
48
48
30
00
00
00
00
ENDCHAR

STARTCHAR H
ENCODING 72
SWIDTH 1000 0
DWIDTH 6 0
BBX 6 18 0 -4
BITMAP
00
00
00
00
00
48
48
48
48
78
48
48
48
48
00
00
00
00
ENDCHAR

STARTCHAR I
ENCODING 73
SWIDTH 1000 0
DWIDTH 6 0
BBX 6 18 0 -4
BITMAP
00
00
00
00
00
38
10
10
10
10
10
10
10
38
00
00
00
00
ENDCHAR

STARTCHAR J
ENCODING 74
SWIDTH 1000 0
DWIDTH 6 0
BBX 6 18 0 -4
BITMAP
00
00
00
00
00
38
10
10
10
10
10
10
90
60
00
00
00
00
ENDCHAR

STARTCHAR K
ENCODING 75
SWIDTH 1000 0
DWIDTH 6 0
BBX 6 18 0 -4
BITMAP
00
00
00
00
00
48
48
50
50
60
50
48
48
44
00
00
00
00
ENDCHAR

STARTCHAR L
ENCODING 76
SWIDTH 1000 0
DWIDTH 6 0
BBX 6 18 0 -4
BITMAP
00
00
00
00
00
40
40
40
40
40
40
40
40
78
00
00
00
00
ENDCHAR

STARTCHAR M
ENCODING 77
SWIDTH 1000 0
DWIDTH 6 0
BBX 6 18 0 -4
BITMAP
00
00
00
00
00
44
6C
6C
54
54
54
54
44
44
00
00
00
00
ENDCHAR

STARTCHAR N
ENCODING 78
SWIDTH 1000 0
DWIDTH 6 0
BBX 6 18 0 -4
BITMAP
00
00
00
00
00
44
64
64
54
54
4C
4C
44
44
00
00
00
00
ENDCHAR

STARTCHAR O
ENCODING 79
SWIDTH 1000 0
DWIDTH 6 0
BBX 6 18 0 -4
BITMAP
00
00
00
00
00
30
48
48
48
48
48
48
48
30
00
00
00
00
ENDCHAR

STARTCHAR P
ENCODING 80
SWIDTH 1000 0
DWIDTH 6 0
BBX 6 18 0 -4
BITMAP
00
00
00
00
00
70
48
48
48
48
70
40
40
40
00
00
00
00
ENDCHAR

STARTCHAR Q
ENCODING 81
SWIDTH 1000 0
DWIDTH 6 0
BBX 6 18 0 -4
BITMAP
00
00
00
00
00
30
48
48
48
48
48
48
58
30
08
00
00
00
ENDCHAR

STARTCHAR R
ENCODING 82
SWIDTH 1000 0
DWIDTH 6 0
BBX 6 18 0 -4
BITMAP
00
00
00
00
00
70
48
48
48
70
50
48
48
48
00
00
00
00
ENDCHAR

STARTCHAR S
ENCODING 83
SWIDTH 1000 0
DWIDTH 6 0
BBX 6 18 0 -4
BITMAP
00
00
00
00
00
30
48
40
20
10
08
08
48
30
00
00
00
00
ENDCHAR

STARTCHAR T
ENCODING 84
SWIDTH 1000 0
DWIDTH 6 0
BBX 6 18 0 -4
BITMAP
00
00
00
00
00
7C
10
10
10
10
10
10
10
10
00
00
00
00
ENDCHAR

STARTCHAR U
ENCODING 85
SWIDTH 1000 0
DWIDTH 6 0
BBX 6 18 0 -4
BITMAP
00
00
00
00
00
48
48
48
48
48
48
48
48
30
00
00
00
00
ENDCHAR

STARTCHAR V
ENCODING 86
SWIDTH 1000 0
DWIDTH 6 0
BBX 6 18 0 -4
BITMAP
00
00
00
00
00
44
44
44
44
44
28
28
28
10
00
00
00
00
ENDCHAR

STARTCHAR W
ENCODING 87
SWIDTH 1000 0
DWIDTH 6 0
BBX 6 18 0 -4
BITMAP
00
00
00
00
00
44
44
54
54
54
54
54
54
28
00
00
00
00
ENDCHAR

STARTCHAR X
ENCODING 88
SWIDTH 1000 0
DWIDTH 6 0
BBX 6 18 0 -4
BITMAP
00
00
00
00
00
44
44
28
28
10
28
28
44
44
00
00
00
00
ENDCHAR

STARTCHAR Y
ENCODING 89
SWIDTH 1000 0
DWIDTH 6 0
BBX 6 18 0 -4
BITMAP
00
00
00
00
00
44
44
44
28
28
10
10
10
10
00
00
00
00
ENDCHAR

STARTCHAR Z
ENCODING 90
SWIDTH 1000 0
DWIDTH 6 0
BBX 6 18 0 -4
BITMAP
00
00
00
00
00
78
08
10
10
20
20
40
40
78
00
00
00
00
ENDCHAR

STARTCHAR bracketleft
ENCODING 91
SWIDTH 1000 0
DWIDTH 6 0
BBX 6 18 0 -4
BITMAP
00
00
00
00
38
20
20
20
20
20
20
20
20
20
20
38
00
00
ENDCHAR

STARTCHAR backslash
ENCODING 92
SWIDTH 1000 0
DWIDTH 6 0
BBX 6 18 0 -4
BITMAP
00
00
00
00
40
40
40
20
20
20
10
10
10
08
08
08
00
00
ENDCHAR

STARTCHAR bracketright
ENCODING 93
SWIDTH 1000 0
DWIDTH 6 0
BBX 6 18 0 -4
BITMAP
00
00
00
00
70
10
10
10
10
10
10
10
10
10
10
70
00
00
ENDCHAR

STARTCHAR asciicircum
ENCODING 94
SWIDTH 1000 0
DWIDTH 6 0
BBX 6 18 0 -4
BITMAP
00
00
00
00
00
10
28
44
00
00
00
00
00
00
00
00
00
00
ENDCHAR

STARTCHAR underscore
ENCODING 95
SWIDTH 1000 0
DWIDTH 6 0
BBX 6 18 0 -4
BITMAP
00
00
00
00
00
00
00
00
00
00
00
00
00
FC
00
00
00
00
ENDCHAR

STARTCHAR quoteleft
ENCODING 96
SWIDTH 1000 0
DWIDTH 6 0
BBX 6 18 0 -4
BITMAP
00
00
00
00
20
20
10
00
00
00
00
00
00
00
00
00
00
00
ENDCHAR

STARTCHAR a
ENCODING 97
SWIDTH 1000 0
DWIDTH 6 0
BBX 6 18 0 -4
BITMAP
00
00
00
00
00
00
00
30
08
08
38
48
48
34
00
00
00
00
ENDCHAR

STARTCHAR b
ENCODING 98
SWIDTH 1000 0
DWIDTH 6 0
BBX 6 18 0 -4
BITMAP
00
00
00
00
00
C0
40
70
48
48
48
48
48
30
00
00
00
00
ENDCHAR

STARTCHAR c
ENCODING 99
SWIDTH 1000 0
DWIDTH 6 0
BBX 6 18 0 -4
BITMAP
00
00
00
00
00
00
00
30
48
40
40
40
48
30
00
00
00
00
ENDCHAR

STARTCHAR d
ENCODING 100
SWIDTH 1000 0
DWIDTH 6 0
BBX 6 18 0 -4
BITMAP
00
00
00
00
00
18
08
38
48
48
48
48
48
34
00
00
00
00
ENDCHAR

STARTCHAR e
ENCODING 101
SWIDTH 1000 0
DWIDTH 6 0
BBX 6 18 0 -4
BITMAP
00
00
00
00
00
00
00
30
48
48
78
40
48
30
00
00
00
00
ENDCHAR

STARTCHAR f
ENCODING 102
SWIDTH 1000 0
DWIDTH 6 0
BBX 6 18 0 -4
BITMAP
00
00
00
00
00
18
20
78
20
20
20
20
20
70
00
00
00
00
ENDCHAR

STARTCHAR g
ENCODING 103
SWIDTH 1000 0
DWIDTH 6 0
BBX 6 18 0 -4
BITMAP
00
00
00
00
00
00
00
38
48
48
48
48
48
38
08
48
30
00
ENDCHAR

STARTCHAR h
ENCODING 104
SWIDTH 1000 0
DWIDTH 6 0
BBX 6 18 0 -4
BITMAP
00
00
00
00
00
C0
40
50
68
48
48
48
48
48
00
00
00
00
ENDCHAR

STARTCHAR i
ENCODING 105
SWIDTH 1000 0
DWIDTH 6 0
BBX 6 18 0 -4
BITMAP
00
00
00
00
00
10
00
70
10
10
10
10
10
7C
00
00
00
00
ENDCHAR

STARTCHAR j
ENCODING 106
SWIDTH 1000 0
DWIDTH 6 0
BBX 6 18 0 -4
BITMAP
00
00
00
00
00
10
00
70
10
10
10
10
10
10
10
60
00
00
ENDCHAR

STARTCHAR k
ENCODING 107
SWIDTH 1000 0
DWIDTH 6 0
BBX 6 18 0 -4
BITMAP
00
00
00
00
00
C0
40
48
50
60
60
50
48
44
00
00
00
00
ENDCHAR

STARTCHAR l
ENCODING 108
SWIDTH 1000 0
DWIDTH 6 0
BBX 6 18 0 -4
BITMAP
00
00
00
00
00
70
10
10
10
10
10
10
10
7C
00
00
00
00
ENDCHAR

STARTCHAR m
ENCODING 109
SWIDTH 1000 0
DWIDTH 6 0
BBX 6 18 0 -4
BITMAP
00
00
00
00
00
00
00
68
54
54
54
54
54
54
00
00
00
00
ENDCHAR

STARTCHAR n
ENCODING 110
SWIDTH 1000 0
DWIDTH 6 0
BBX 6 18 0 -4
BITMAP
00
00
00
00
00
00
00
B0
48
48
48
48
48
48
00
00
00
00
ENDCHAR

STARTCHAR o
ENCODING 111
SWIDTH 1000 0
DWIDTH 6 0
BBX 6 18 0 -4
BITMAP
00
00
00
00
00
00
00
30
48
48
48
48
48
30
00
00
00
00
ENDCHAR

STARTCHAR p
ENCODING 112
SWIDTH 1000 0
DWIDTH 6 0
BBX 6 18 0 -4
BITMAP
00
00
00
00
00
00
00
70
48
48
48
48
48
70
40
40
00
00
ENDCHAR

STARTCHAR q
ENCODING 113
SWIDTH 1000 0
DWIDTH 6 0
BBX 6 18 0 -4
BITMAP
00
00
00
00
00
00
00
38
48
48
48
48
48
38
08
08
00
00
ENDCHAR

STARTCHAR r
ENCODING 114
SWIDTH 1000 0
DWIDTH 6 0
BBX 6 18 0 -4
BITMAP
00
00
00
00
00
00
00
6C
34
20
20
20
20
70
00
00
00
00
ENDCHAR

STARTCHAR s
ENCODING 115
SWIDTH 1000 0
DWIDTH 6 0
BBX 6 18 0 -4
BITMAP
00
00
00
00
00
00
00
30
48
40
30
08
48
30
00
00
00
00
ENDCHAR

STARTCHAR t
ENCODING 116
SWIDTH 1000 0
DWIDTH 6 0
BBX 6 18 0 -4
BITMAP
00
00
00
00
00
20
20
78
20
20
20
20
20
18
00
00
00
00
ENDCHAR

STARTCHAR u
ENCODING 117
SWIDTH 1000 0
DWIDTH 6 0
BBX 6 18 0 -4
BITMAP
00
00
00
00
00
00
00
C8
48
48
48
48
48
34
00
00
00
00
ENDCHAR

STARTCHAR v
ENCODING 118
SWIDTH 1000 0
DWIDTH 6 0
BBX 6 18 0 -4
BITMAP
00
00
00
00
00
00
00
44
44
44
28
28
28
10
00
00
00
00
ENDCHAR

STARTCHAR w
ENCODING 119
SWIDTH 1000 0
DWIDTH 6 0
BBX 6 18 0 -4
BITMAP
00
00
00
00
00
00
00
54
54
54
54
54
54
28
00
00
00
00
ENDCHAR

STARTCHAR x
ENCODING 120
SWIDTH 1000 0
DWIDTH 6 0
BBX 6 18 0 -4
BITMAP
00
00
00
00
00
00
00
48
48
30
30
28
48
48
00
00
00
00
ENDCHAR

STARTCHAR y
ENCODING 121
SWIDTH 1000 0
DWIDTH 6 0
BBX 6 18 0 -4
BITMAP
00
00
00
00
00
00
00
44
44
44
28
28
10
10
20
20
00
00
ENDCHAR

STARTCHAR z
ENCODING 122
SWIDTH 1000 0
DWIDTH 6 0
BBX 6 18 0 -4
BITMAP
00
00
00
00
00
00
00
78
08
10
20
20
40
78
00
00
00
00
ENDCHAR

STARTCHAR braceleft
ENCODING 123
SWIDTH 1000 0
DWIDTH 6 0
BBX 6 18 0 -4
BITMAP
00
00
00
00
18
20
20
20
20
40
20
20
20
20
20
18
00
00
ENDCHAR

STARTCHAR bar
ENCODING 124
SWIDTH 1000 0
DWIDTH 6 0
BBX 6 18 0 -4
BITMAP
00
00
00
20
20
20
20
20
20
20
20
20
20
20
20
20
00
00
ENDCHAR

STARTCHAR braceright
ENCODING 125
SWIDTH 1000 0
DWIDTH 6 0
BBX 6 18 0 -4
BITMAP
00
00
00
00
60
10
10
10
10
08
10
10
10
10
10
60
00
00
ENDCHAR

STARTCHAR asciitilde
ENCODING 126
SWIDTH 1000 0
DWIDTH 6 0
BBX 6 18 0 -4
BITMAP
00
00
00
00
00
00
34
58
00
00
00
00
00
00
00
00
00
00
ENDCHAR

STARTCHAR OE
ENCODING 128
SWIDTH 1000 0
DWIDTH 6 0
BBX 6 18 0 -4
BITMAP
00
00
00
00
00
3C
50
50
50
5C
50
50
50
3C
00
00
00
00
ENDCHAR

STARTCHAR oe
ENCODING 129
SWIDTH 1000 0
DWIDTH 6 0
BBX 6 18 0 -4
BITMAP
00
00
00
00
00
00
00
28
54
54
5C
50
50
2C
00
00
00
00
ENDCHAR

STARTCHAR Ydieresis
ENCODING 130
SWIDTH 1000 0
DWIDTH 6 0
BBX 6 18 0 -4
BITMAP
00
00
44
44
00
44
44
28
28
10
10
10
10
10
00
00
00
00
ENDCHAR

STARTCHAR Error
ENCODING 159
SWIDTH 1000 0
DWIDTH 6 0
BBX 6 18 0 -4
BITMAP
38
7C
FC
E4
E0
E0
E0
70
70
38
38
38
38
38
00
38
38
38
ENDCHAR

STARTCHAR space
ENCODING 160
SWIDTH 1000 0
DWIDTH 6 0
BBX 6 18 0 -4
BITMAP
00
00
00
00
00
00
00
00
00
00
00
00
00
00
00
00
00
00
ENDCHAR

STARTCHAR exclamdown
ENCODING 161
SWIDTH 1000 0
DWIDTH 6 0
BBX 6 18 0 -4
BITMAP
00
00
00
00
00
00
20
00
20
20
20
20
20
20
20
00
00
00
ENDCHAR

STARTCHAR cent
ENCODING 162
SWIDTH 1000 0
DWIDTH 6 0
BBX 6 18 0 -4
BITMAP
00
00
00
00
00
10
10
30
48
40
40
40
48
30
10
10
00
00
ENDCHAR

STARTCHAR sterling
ENCODING 163
SWIDTH 1000 0
DWIDTH 6 0
BBX 6 18 0 -4
BITMAP
00
00
00
00
00
18
24
20
20
78
20
20
20
5C
00
00
00
00
ENDCHAR

STARTCHAR currency
ENCODING 164
SWIDTH 1000 0
DWIDTH 6 0
BBX 6 18 0 -4
BITMAP
00
00
00
00
00
00
44
38
28
28
28
38
44
00
00
00
00
00
ENDCHAR

STARTCHAR yen
ENCODING 165
SWIDTH 1000 0
DWIDTH 6 0
BBX 6 18 0 -4
BITMAP
00
00
00
00
00
44
44
28
28
10
7C
10
7C
10
00
00
00
00
ENDCHAR

STARTCHAR brokenbar
ENCODING 166
SWIDTH 1000 0
DWIDTH 6 0
BBX 6 18 0 -4
BITMAP
00
10
10
10
10
10
10
10
00
00
00
10
10
10
10
10
10
10
ENDCHAR

STARTCHAR section
ENCODING 167
SWIDTH 1000 0
DWIDTH 6 0
BBX 6 18 0 -4
BITMAP
00
00
00
00
30
48
40
30
48
48
48
30
08
48
30
00
00
00
ENDCHAR

STARTCHAR dieresis
ENCODING 168
SWIDTH 1000 0
DWIDTH 6 0
BBX 6 18 0 -4
BITMAP
00
00
48
48
00
00
00
00
00
00
00
00
00
00
00
00
00
00
ENDCHAR

STARTCHAR copyright
ENCODING 169
SWIDTH 1000 0
DWIDTH 6 0
BBX 6 18 0 -4
BITMAP
00
00
00
00
00
78
84
94
A4
A4
A4
A4
94
84
78
00
00
00
ENDCHAR

STARTCHAR ordfeminine
ENCODING 170
SWIDTH 1000 0
DWIDTH 6 0
BBX 6 18 0 -4
BITMAP
00
00
00
00
30
08
38
48
38
00
78
00
00
00
00
00
00
00
ENDCHAR

STARTCHAR guillemotleft
ENCODING 171
SWIDTH 1000 0
DWIDTH 6 0
BBX 6 18 0 -4
BITMAP
00
00
00
00
00
00
00
28
50
A0
A0
50
28
00
00
00
00
00
ENDCHAR

STARTCHAR logicalnot
ENCODING 172
SWIDTH 1000 0
DWIDTH 6 0
BBX 6 18 0 -4
BITMAP
00
00
00
00
00
00
00
00
7C
04
04
04
00
00
00
00
00
00
ENDCHAR

STARTCHAR hyphen
ENCODING 173
SWIDTH 1000 0
DWIDTH 6 0
BBX 6 18 0 -4
BITMAP
00
00
00
00
00
00
00
00
78
00
00
00
00
00
00
00
00
00
ENDCHAR

STARTCHAR registered
ENCODING 174
SWIDTH 1000 0
DWIDTH 6 0
BBX 6 18 0 -4
BITMAP
00
00
30
48
84
E4
D4
D4
E4
D4
D4
84
48
30
00
00
00
00
ENDCHAR

STARTCHAR macron
ENCODING 175
SWIDTH 1000 0
DWIDTH 6 0
BBX 6 18 0 -4
BITMAP
00
00
00
78
00
00
00
00
00
00
00
00
00
00
00
00
00
00
ENDCHAR

STARTCHAR degree
ENCODING 176
SWIDTH 1000 0
DWIDTH 6 0
BBX 6 18 0 -4
BITMAP
00
00
00
00
00
20
50
20
00
00
00
00
00
00
00
00
00
00
ENDCHAR

STARTCHAR plusminus
ENCODING 177
SWIDTH 1000 0
DWIDTH 6 0
BBX 6 18 0 -4
BITMAP
00
00
00
00
00
00
10
10
7C
10
10
00
7C
00
00
00
00
00
ENDCHAR

STARTCHAR twosuperior
ENCODING 178
SWIDTH 1000 0
DWIDTH 6 0
BBX 6 18 0 -4
BITMAP
00
00
00
00
30
48
10
20
78
00
00
00
00
00
00
00
00
00
ENDCHAR

STARTCHAR threesuperior
ENCODING 179
SWIDTH 1000 0
DWIDTH 6 0
BBX 6 18 0 -4
BITMAP
00
00
00
00
30
08
30
08
30
00
00
00
00
00
00
00
00
00
ENDCHAR

STARTCHAR acute
ENCODING 180
SWIDTH 1000 0
DWIDTH 6 0
BBX 6 18 0 -4
BITMAP
08
10
20
00
00
00
00
00
00
00
00
00
00
00
00
00
00
00
ENDCHAR

STARTCHAR mu
ENCODING 181
SWIDTH 1000 0
DWIDTH 6 0
BBX 6 18 0 -4
BITMAP
00
00
00
00
00
00
00
48
48
48
48
48
48
74
80
00
00
00
ENDCHAR

STARTCHAR paragraph
ENCODING 182
SWIDTH 1000 0
DWIDTH 6 0
BBX 6 18 0 -4
BITMAP
00
00
00
00
00
78
E8
E8
E8
E8
68
28
28
28
28
00
00
00
ENDCHAR

STARTCHAR periodcentered
ENCODING 183
SWIDTH 1000 0
DWIDTH 6 0
BBX 6 18 0 -4
BITMAP
00
00
00
00
00
00
00
00
00
10
10
00
00
00
00
00
00
00
ENDCHAR

STARTCHAR cedilla
ENCODING 184
SWIDTH 1000 0
DWIDTH 6 0
BBX 6 18 0 -4
BITMAP
00
00
00
00
00
00
00
00
00
00
00
00
00
00
20
10
60
00
ENDCHAR

STARTCHAR onesuperior
ENCODING 185
SWIDTH 1000 0
DWIDTH 6 0
BBX 6 18 0 -4
BITMAP
00
00
00
00
20
60
20
20
70
00
00
00
00
00
00
00
00
00
ENDCHAR

STARTCHAR ordmasculine
ENCODING 186
SWIDTH 1000 0
DWIDTH 6 0
BBX 6 18 0 -4
BITMAP
00
00
00
00
30
48
48
48
30
00
78
00
00
00
00
00
00
00
ENDCHAR

STARTCHAR guillemotright
ENCODING 187
SWIDTH 1000 0
DWIDTH 6 0
BBX 6 18 0 -4
BITMAP
00
00
00
00
00
00
00
50
28
14
14
28
50
00
00
00
00
00
ENDCHAR

STARTCHAR onequarter
ENCODING 188
SWIDTH 1000 0
DWIDTH 6 0
BBX 6 18 0 -4
BITMAP
00
00
00
40
C0
40
40
E8
10
20
48
98
28
3C
08
00
00
00
ENDCHAR

STARTCHAR onehalf
ENCODING 189
SWIDTH 1000 0
DWIDTH 6 0
BBX 6 18 0 -4
BITMAP
00
00
00
40
C0
40
40
E8
10
20
58
04
08
10
1C
00
00
00
ENDCHAR

STARTCHAR threequarters
ENCODING 190
SWIDTH 1000 0
DWIDTH 6 0
BBX 6 18 0 -4
BITMAP
00
00
00
00
C0
20
40
28
D0
28
58
18
28
3C
08
00
00
00
ENDCHAR

STARTCHAR questiondown
ENCODING 191
SWIDTH 1000 0
DWIDTH 6 0
BBX 6 18 0 -4
BITMAP
00
00
00
00
00
00
10
00
10
10
10
20
40
48
30
00
00
00
ENDCHAR

STARTCHAR Agrave
ENCODING 192
SWIDTH 1000 0
DWIDTH 6 0
BBX 6 18 0 -4
BITMAP
00
00
40
20
00
30
48
48
48
78
48
48
48
48
00
00
00
00
ENDCHAR

STARTCHAR Aacute
ENCODING 193
SWIDTH 1000 0
DWIDTH 6 0
BBX 6 18 0 -4
BITMAP
00
00
10
20
00
30
48
48
48
78
48
48
48
48
00
00
00
00
ENDCHAR

STARTCHAR Acircumflex
ENCODING 194
SWIDTH 1000 0
DWIDTH 6 0
BBX 6 18 0 -4
BITMAP
00
00
30
48
00
30
48
48
48
78
48
48
48
48
00
00
00
00
ENDCHAR

STARTCHAR Atilde
ENCODING 195
SWIDTH 1000 0
DWIDTH 6 0
BBX 6 18 0 -4
BITMAP
00
00
34
58
00
30
48
48
48
78
48
48
48
48
00
00
00
00
ENDCHAR

STARTCHAR Adieresis
ENCODING 196
SWIDTH 1000 0
DWIDTH 6 0
BBX 6 18 0 -4
BITMAP
00
00
48
48
00
30
48
48
48
78
48
48
48
48
00
00
00
00
ENDCHAR

STARTCHAR Aring
ENCODING 197
SWIDTH 1000 0
DWIDTH 6 0
BBX 6 18 0 -4
BITMAP
00
30
48
30
00
30
48
48
48
78
48
48
48
48
00
00
00
00
ENDCHAR

STARTCHAR AE
ENCODING 198
SWIDTH 1000 0
DWIDTH 6 0
BBX 6 18 0 -4
BITMAP
00
00
00
00
00
3C
50
50
5C
70
50
50
50
5C
00
00
00
00
ENDCHAR

STARTCHAR Ccedilla
ENCODING 199
SWIDTH 1000 0
DWIDTH 6 0
BBX 6 18 0 -4
BITMAP
00
00
00
00
00
30
48
40
40
40
40
40
48
30
10
60
00
00
ENDCHAR

STARTCHAR Egrave
ENCODING 200
SWIDTH 1000 0
DWIDTH 6 0
BBX 6 18 0 -4
BITMAP
00
00
20
10
00
78
40
40
40
70
40
40
40
78
00
00
00
00
ENDCHAR

STARTCHAR Eacute
ENCODING 201
SWIDTH 1000 0
DWIDTH 6 0
BBX 6 18 0 -4
BITMAP
00
00
08
10
00
78
40
40
40
70
40
40
40
78
00
00
00
00
ENDCHAR

STARTCHAR Ecircumflex
ENCODING 202
SWIDTH 1000 0
DWIDTH 6 0
BBX 6 18 0 -4
BITMAP
00
00
30
48
00
78
40
40
40
70
40
40
40
78
00
00
00
00
ENDCHAR

STARTCHAR Edieresis
ENCODING 203
SWIDTH 1000 0
DWIDTH 6 0
BBX 6 18 0 -4
BITMAP
00
00
48
48
00
78
40
40
40
70
40
40
40
78
00
00
00
00
ENDCHAR

STARTCHAR Igrave
ENCODING 204
SWIDTH 1000 0
DWIDTH 6 0
BBX 6 18 0 -4
BITMAP
00
00
20
10
00
38
10
10
10
10
10
10
10
38
00
00
00
00
ENDCHAR

STARTCHAR Iacute
ENCODING 205
SWIDTH 1000 0
DWIDTH 6 0
BBX 6 18 0 -4
BITMAP
00
00
08
10
00
38
10
10
10
10
10
10
10
38
00
00
00
00
ENDCHAR

STARTCHAR Icircumflex
ENCODING 206
SWIDTH 1000 0
DWIDTH 6 0
BBX 6 18 0 -4
BITMAP
00
00
10
28
00
38
10
10
10
10
10
10
10
38
00
00
00
00
ENDCHAR

STARTCHAR Idieresis
ENCODING 207
SWIDTH 1000 0
DWIDTH 6 0
BBX 6 18 0 -4
BITMAP
00
00
44
44
00
38
10
10
10
10
10
10
10
38
00
00
00
00
ENDCHAR

STARTCHAR Eth
ENCODING 208
SWIDTH 1000 0
DWIDTH 6 0
BBX 6 18 0 -4
BITMAP
00
00
00
00
00
70
48
48
48
E8
48
48
48
70
00
00
00
00
ENDCHAR

STARTCHAR Ntilde
ENCODING 209
SWIDTH 1000 0
DWIDTH 6 0
BBX 6 18 0 -4
BITMAP
00
00
34
58
00
44
64
64
54
54
4C
4C
44
44
00
00
00
00
ENDCHAR

STARTCHAR Ograve
ENCODING 210
SWIDTH 1000 0
DWIDTH 6 0
BBX 6 18 0 -4
BITMAP
00
00
40
20
00
30
48
48
48
48
48
48
48
30
00
00
00
00
ENDCHAR

STARTCHAR Oacute
ENCODING 211
SWIDTH 1000 0
DWIDTH 6 0
BBX 6 18 0 -4
BITMAP
00
00
08
10
00
30
48
48
48
48
48
48
48
30
00
00
00
00
ENDCHAR

STARTCHAR Ocircumflex
ENCODING 212
SWIDTH 1000 0
DWIDTH 6 0
BBX 6 18 0 -4
BITMAP
00
00
30
48
00
30
48
48
48
48
48
48
48
30
00
00
00
00
ENDCHAR

STARTCHAR Otilde
ENCODING 213
SWIDTH 1000 0
DWIDTH 6 0
BBX 6 18 0 -4
BITMAP
00
00
28
50
00
30
48
48
48
48
48
48
48
30
00
00
00
00
ENDCHAR

STARTCHAR Odieresis
ENCODING 214
SWIDTH 1000 0
DWIDTH 6 0
BBX 6 18 0 -4
BITMAP
00
00
48
48
00
30
48
48
48
48
48
48
48
30
00
00
00
00
ENDCHAR

STARTCHAR multiply
ENCODING 215
SWIDTH 1000 0
DWIDTH 6 0
BBX 6 18 0 -4
BITMAP
00
00
00
00
00
00
00
44
28
10
28
44
00
00
00
00
00
00
ENDCHAR

STARTCHAR Oslash
ENCODING 216
SWIDTH 1000 0
DWIDTH 6 0
BBX 6 18 0 -4
BITMAP
00
00
00
00
08
38
48
48
48
48
48
48
48
70
40
00
00
00
ENDCHAR

STARTCHAR Ugrave
ENCODING 217
SWIDTH 1000 0
DWIDTH 6 0
BBX 6 18 0 -4
BITMAP
00
00
40
20
00
48
48
48
48
48
48
48
48
30
00
00
00
00
ENDCHAR

STARTCHAR Uacute
ENCODING 218
SWIDTH 1000 0
DWIDTH 6 0
BBX 6 18 0 -4
BITMAP
00
00
08
10
00
48
48
48
48
48
48
48
48
30
00
00
00
00
ENDCHAR

STARTCHAR Ucircumflex
ENCODING 219
SWIDTH 1000 0
DWIDTH 6 0
BBX 6 18 0 -4
BITMAP
00
00
30
48
00
48
48
48
48
48
48
48
48
30
00
00
00
00
ENDCHAR

STARTCHAR Udieresis
ENCODING 220
SWIDTH 1000 0
DWIDTH 6 0
BBX 6 18 0 -4
BITMAP
00
00
48
48
00
48
48
48
48
48
48
48
48
30
00
00
00
00
ENDCHAR

STARTCHAR Yacute
ENCODING 221
SWIDTH 1000 0
DWIDTH 6 0
BBX 6 18 0 -4
BITMAP
00
00
08
10
00
44
44
44
28
28
10
10
10
10
00
00
00
00
ENDCHAR

STARTCHAR Thorn
ENCODING 222
SWIDTH 1000 0
DWIDTH 6 0
BBX 6 18 0 -4
BITMAP
00
00
00
00
00
70
20
38
24
24
24
38
20
70
00
00
00
00
ENDCHAR

STARTCHAR germandbls
ENCODING 223
SWIDTH 1000 0
DWIDTH 6 0
BBX 6 18 0 -4
BITMAP
00
00
00
00
00
30
48
48
48
50
48
48
48
50
40
00
00
00
ENDCHAR

STARTCHAR agrave
ENCODING 224
SWIDTH 1000 0
DWIDTH 6 0
BBX 6 18 0 -4
BITMAP
00
00
00
00
20
10
00
30
08
08
38
48
48
34
00
00
00
00
ENDCHAR

STARTCHAR aacute
ENCODING 225
SWIDTH 1000 0
DWIDTH 6 0
BBX 6 18 0 -4
BITMAP
00
00
00
00
08
10
00
30
08
08
38
48
48
34
00
00
00
00
ENDCHAR

STARTCHAR acircumflex
ENCODING 226
SWIDTH 1000 0
DWIDTH 6 0
BBX 6 18 0 -4
BITMAP
00
00
00
00
30
48
00
30
08
08
38
48
48
34
00
00
00
00
ENDCHAR

STARTCHAR atilde
ENCODING 227
SWIDTH 1000 0
DWIDTH 6 0
BBX 6 18 0 -4
BITMAP
00
00
00
00
34
58
00
30
08
08
38
48
48
34
00
00
00
00
ENDCHAR

STARTCHAR adieresis
ENCODING 228
SWIDTH 1000 0
DWIDTH 6 0
BBX 6 18 0 -4
BITMAP
00
00
00
00
48
48
00
30
08
08
38
48
48
34
00
00
00
00
ENDCHAR

STARTCHAR aring
ENCODING 229
SWIDTH 1000 0
DWIDTH 6 0
BBX 6 18 0 -4
BITMAP
00
00
00
10
28
10
00
30
08
08
38
48
48
34
00
00
00
00
ENDCHAR

STARTCHAR ae
ENCODING 230
SWIDTH 1000 0
DWIDTH 6 0
BBX 6 18 0 -4
BITMAP
00
00
00
00
00
00
00
28
14
14
3C
50
54
28
00
00
00
00
ENDCHAR

STARTCHAR ccedilla
ENCODING 231
SWIDTH 1000 0
DWIDTH 6 0
BBX 6 18 0 -4
BITMAP
00
00
00
00
00
00
00
30
48
40
40
40
48
30
10
60
00
00
ENDCHAR

STARTCHAR egrave
ENCODING 232
SWIDTH 1000 0
DWIDTH 6 0
BBX 6 18 0 -4
BITMAP
00
00
00
00
40
20
00
30
48
48
78
40
48
30
00
00
00
00
ENDCHAR

STARTCHAR eacute
ENCODING 233
SWIDTH 1000 0
DWIDTH 6 0
BBX 6 18 0 -4
BITMAP
00
00
00
00
08
10
00
30
48
48
78
40
48
30
00
00
00
00
ENDCHAR

STARTCHAR ecircumflex
ENCODING 234
SWIDTH 1000 0
DWIDTH 6 0
BBX 6 18 0 -4
BITMAP
00
00
00
00
30
48
00
30
48
48
78
40
48
30
00
00
00
00
ENDCHAR

STARTCHAR edieresis
ENCODING 235
SWIDTH 1000 0
DWIDTH 6 0
BBX 6 18 0 -4
BITMAP
00
00
00
00
48
48
00
30
48
48
78
40
48
30
00
00
00
00
ENDCHAR

STARTCHAR igrave
ENCODING 236
SWIDTH 1000 0
DWIDTH 6 0
BBX 6 18 0 -4
BITMAP
00
00
00
00
20
10
00
70
10
10
10
10
10
7C
00
00
00
00
ENDCHAR

STARTCHAR iacute
ENCODING 237
SWIDTH 1000 0
DWIDTH 6 0
BBX 6 18 0 -4
BITMAP
00
00
00
00
08
10
00
70
10
10
10
10
10
7C
00
00
00
00
ENDCHAR

STARTCHAR icircumflex
ENCODING 238
SWIDTH 1000 0
DWIDTH 6 0
BBX 6 18 0 -4
BITMAP
00
00
00
00
30
48
00
70
10
10
10
10
10
7C
00
00
00
00
ENDCHAR

STARTCHAR idieresis
ENCODING 239
SWIDTH 1000 0
DWIDTH 6 0
BBX 6 18 0 -4
BITMAP
00
00
00
00
48
48
00
70
10
10
10
10
10
7C
00
00
00
00
ENDCHAR

STARTCHAR eth
ENCODING 240
SWIDTH 1000 0
DWIDTH 6 0
BBX 6 18 0 -4
BITMAP
00
00
00
00
00
50
20
50
08
38
48
48
48
30
00
00
00
00
ENDCHAR

STARTCHAR ntilde
ENCODING 241
SWIDTH 1000 0
DWIDTH 6 0
BBX 6 18 0 -4
BITMAP
00
00
00
00
68
B0
00
B0
48
48
48
48
48
48
00
00
00
00
ENDCHAR

STARTCHAR ograve
ENCODING 242
SWIDTH 1000 0
DWIDTH 6 0
BBX 6 18 0 -4
BITMAP
00
00
00
00
40
20
00
30
48
48
48
48
48
30
00
00
00
00
ENDCHAR

STARTCHAR oacute
ENCODING 243
SWIDTH 1000 0
DWIDTH 6 0
BBX 6 18 0 -4
BITMAP
00
00
00
00
10
20
00
30
48
48
48
48
48
30
00
00
00
00
ENDCHAR

STARTCHAR ocircumflex
ENCODING 244
SWIDTH 1000 0
DWIDTH 6 0
BBX 6 18 0 -4
BITMAP
00
00
00
00
30
48
00
30
48
48
48
48
48
30
00
00
00
00
ENDCHAR

STARTCHAR otilde
ENCODING 245
SWIDTH 1000 0
DWIDTH 6 0
BBX 6 18 0 -4
BITMAP
00
00
00
00
34
58
00
30
48
48
48
48
48
30
00
00
00
00
ENDCHAR

STARTCHAR odieresis
ENCODING 246
SWIDTH 1000 0
DWIDTH 6 0
BBX 6 18 0 -4
BITMAP
00
00
00
00
48
48
00
30
48
48
48
48
48
30
00
00
00
00
ENDCHAR

STARTCHAR divide
ENCODING 247
SWIDTH 1000 0
DWIDTH 6 0
BBX 6 18 0 -4
BITMAP
00
00
00
00
00
00
10
10
00
7C
00
10
10
00
00
00
00
00
ENDCHAR

STARTCHAR oslash
ENCODING 248
SWIDTH 1000 0
DWIDTH 6 0
BBX 6 18 0 -4
BITMAP
00
00
00
00
00
00
08
38
48
48
48
48
48
70
40
00
00
00
ENDCHAR

STARTCHAR ugrave
ENCODING 249
SWIDTH 1000 0
DWIDTH 6 0
BBX 6 18 0 -4
BITMAP
00
00
00
00
40
20
00
C8
48
48
48
48
48
34
00
00
00
00
ENDCHAR

STARTCHAR uacute
ENCODING 250
SWIDTH 1000 0
DWIDTH 6 0
BBX 6 18 0 -4
BITMAP
00
00
00
00
08
10
00
C8
48
48
48
48
48
34
00
00
00
00
ENDCHAR

STARTCHAR ucircumflex
ENCODING 251
SWIDTH 1000 0
DWIDTH 6 0
BBX 6 18 0 -4
BITMAP
00
00
00
00
30
48
00
C8
48
48
48
48
48
34
00
00
00
00
ENDCHAR

STARTCHAR udieresis
ENCODING 252
SWIDTH 1000 0
DWIDTH 6 0
BBX 6 18 0 -4
BITMAP
00
00
00
00
48
48
00
C8
48
48
48
48
48
34
00
00
00
00
ENDCHAR

STARTCHAR yacute
ENCODING 253
SWIDTH 1000 0
DWIDTH 6 0
BBX 6 18 0 -4
BITMAP
00
00
00
00
08
10
00
44
44
44
28
28
28
10
10
10
60
00
ENDCHAR

STARTCHAR thorn
ENCODING 254
SWIDTH 1000 0
DWIDTH 6 0
BBX 6 18 0 -4
BITMAP
00
00
00
00
00
40
40
78
44
44
44
44
44
78
40
40
00
00
ENDCHAR

STARTCHAR ydieresis
ENCODING 255
SWIDTH 1000 0
DWIDTH 6 0
BBX 6 18 0 -4
BITMAP
00
00
00
00
44
44
00
44
44
44
44
28
28
10
10
10
60
00
ENDCHAR
ENDFONT
